<svg width="18" height="22" viewBox="0 0 18 22" fill="none" xmlns="http://www.w3.org/2000/svg">
<path fill-rule="evenodd" clip-rule="evenodd" d="M6.81329 19.773C7.29516 20.3098 7.91376 20.6047 8.55562 20.6047H8.55655C9.2012 20.6047 9.8226 20.3098 10.3054 19.7721C10.564 19.4865 11.0049 19.4633 11.2905 19.7209C11.577 19.9786 11.6003 20.4205 11.3426 20.706C10.591 21.5405 9.60213 22 8.55655 22H8.55469C7.5119 21.9991 6.52492 21.5395 5.77609 20.7051C5.51841 20.4195 5.54167 19.9777 5.82818 19.7209C6.11469 19.4623 6.55562 19.4856 6.81329 19.773ZM8.60195 2C12.7368 2 15.5145 5.22047 15.5145 8.22791C15.5145 9.77488 15.908 10.4307 16.3257 11.1265C16.7387 11.813 17.2066 12.5926 17.2066 14.066C16.8819 17.8307 12.9517 18.1377 8.60195 18.1377C4.25218 18.1377 0.321016 17.8307 7.3348e-05 14.1256C-0.00270493 12.5926 0.465202 11.813 0.878225 11.1265L1.02403 10.8811C1.38304 10.2641 1.68939 9.59289 1.68939 8.22791C1.68939 5.22047 4.46706 2 8.60195 2ZM8.60195 3.39535C5.35078 3.39535 3.08474 5.94233 3.08474 8.22791C3.08474 10.1619 2.54799 11.0558 2.07357 11.8447C1.69311 12.4781 1.39264 12.9786 1.39264 14.066C1.54799 15.8205 2.70613 16.7423 8.60195 16.7423C14.4652 16.7423 15.6596 15.7795 15.814 14.0056C15.8112 12.9786 15.5108 12.4781 15.1303 11.8447C14.6559 11.0558 14.1192 10.1619 14.1192 8.22791C14.1192 5.94233 11.8531 3.39535 8.60195 3.39535Z" fill="black"/>
<circle cx="13.5" cy="4.5" r="3.5" fill="#FF2525" stroke="white" stroke-width="2"/>
</svg>
