<svg width="117" height="40" viewBox="0 0 117 40" fill="none" xmlns="http://www.w3.org/2000/svg">
<rect width="117" height="40" fill="black"/>
<path d="M41.1122 11.1963L40.6731 9.82084C40.5655 9.48096 40.4743 9.10237 40.3916 8.77892H40.3752C40.2946 9.10184 40.2097 9.48944 40.1122 9.82084L39.6816 11.1963H41.1122ZM39.5156 11.9646L39.0352 13.5468H37.9827L39.7723 7.96713H41.0708L42.8832 13.5468H41.7914L41.2861 11.9646" fill="white"/>
<path d="M44.4055 9.51648L45.0598 11.5589C45.1759 11.9153 45.2565 12.2382 45.3313 12.5696H45.3562C45.431 12.2382 45.5216 11.9232 45.6298 11.5589L46.2762 9.51648H47.343L45.8037 13.5473H44.8032L43.3037 9.51648" fill="white"/>
<path d="M50.4141 11.5754C49.6935 11.5669 49.0058 11.7164 49.0058 12.3294C49.0058 12.7271 49.2624 12.9095 49.5859 12.9095C49.9979 12.9095 50.29 12.6443 50.3876 12.3543C50.4146 12.2795 50.4146 12.2053 50.4146 12.1305L50.4141 11.5754ZM51.4062 12.5781C51.4062 12.9429 51.4226 13.2987 51.4724 13.5452H50.553L50.4804 13.0998H50.4539C50.2158 13.4127 49.7932 13.6364 49.263 13.6364C48.4512 13.6364 47.9973 13.0505 47.9973 12.437C47.9973 11.4264 48.8981 10.9062 50.3876 10.9147V10.8484C50.3876 10.5833 50.2821 10.1443 49.5694 10.1443C49.1717 10.1443 48.7576 10.2684 48.484 10.4423L48.2852 9.77948C48.5832 9.59708 49.1055 9.42528 49.7433 9.42528C51.0339 9.42528 51.4067 10.2434 51.4067 11.13" fill="white"/>
<path d="M52.8458 9.51648H53.8628V13.5473H52.8458V9.51648ZM53.349 8.9364C53.0112 8.9364 52.7875 8.68772 52.7875 8.38973C52.7875 8.07477 53.0176 7.83457 53.3591 7.83457C53.7048 7.83457 53.9206 8.07477 53.9285 8.38973C53.9285 8.68772 53.7048 8.9364 53.3591 8.9364" fill="white"/>
<path d="M55.3272 13.5473H56.3464V7.66065H55.3272V13.5473Z" fill="white"/>
<path d="M59.9547 11.5754C59.2341 11.5669 58.5464 11.7164 58.5464 12.3294C58.5464 12.7271 58.803 12.9095 59.1264 12.9095C59.5406 12.9095 59.8306 12.6443 59.9303 12.3543C59.9552 12.2795 59.9552 12.2053 59.9552 12.1305L59.9547 11.5754ZM60.9467 12.5781C60.9467 12.9429 60.9632 13.2987 61.013 13.5452H60.0957L60.0209 13.0998H59.996C59.7558 13.4127 59.3332 13.6364 58.803 13.6364C57.9933 13.6364 57.5373 13.0505 57.5373 12.437C57.5373 11.4264 58.4403 10.9062 59.9297 10.9147V10.8484C59.9297 10.5833 59.8221 10.1443 59.1095 10.1443C58.7118 10.1443 58.2977 10.2684 58.0262 10.4423L57.8274 9.77948C58.1254 9.59708 58.6455 9.42528 59.2834 9.42528C60.574 9.42528 60.9467 10.2434 60.9467 11.13" fill="white"/>
<path d="M63.4049 11.8819C63.4049 11.9646 63.4133 12.0473 63.4298 12.1221C63.5374 12.5362 63.8937 12.8347 64.3307 12.8347C64.9685 12.8347 65.3583 12.3294 65.3583 11.5112C65.3583 10.7986 65.0184 10.2185 64.3391 10.2185C63.925 10.2185 63.5459 10.5165 63.4383 10.964C63.4218 11.0388 63.4054 11.1295 63.4054 11.2291L63.4049 11.8819ZM62.3857 7.66065H63.4049V10.0695H63.4213C63.67 9.68032 64.1069 9.42528 64.7119 9.42528C65.6976 9.42528 66.4002 10.2434 66.3917 11.4693C66.3917 12.9169 65.4744 13.638 64.5629 13.638C64.0411 13.638 63.5793 13.4392 63.2893 12.9423H63.2728L63.223 13.5473H62.3529C62.3693 13.2737 62.3857 12.8267 62.3857 12.4206" fill="white"/>
<path d="M67.5911 13.5473H68.6081V7.66065H67.5911V13.5473Z" fill="white"/>
<path d="M72.5722 11.1051C72.5806 10.7323 72.4147 10.1194 71.7376 10.1194C71.1077 10.1194 70.8425 10.691 70.8012 11.1051H72.5722ZM70.8017 11.8156C70.8266 12.5447 71.3982 12.8596 72.0446 12.8596C72.5149 12.8596 72.8463 12.7849 73.1607 12.6772L73.3097 13.3713C72.9619 13.5224 72.4815 13.6279 71.9035 13.6279C70.5944 13.6279 69.8239 12.8262 69.8239 11.5939C69.8239 10.4757 70.5032 9.42528 71.7959 9.42528C73.1029 9.42528 73.5335 10.5001 73.5335 11.3866C73.5335 11.577 73.517 11.7265 73.5006 11.8156" fill="white"/>
<path d="M78.5892 12.901C79.1672 12.901 79.5728 12.3379 79.5728 11.5197C79.5728 10.8898 79.2913 10.1612 78.5972 10.1612C77.8766 10.1612 77.5865 10.8654 77.5865 11.5367C77.5865 12.3135 77.9757 12.9015 78.5786 12.9015L78.5892 12.901ZM78.5564 13.6385C77.4211 13.6385 76.5367 12.8596 76.5367 11.5611C76.5367 10.2355 77.4047 9.4258 78.6226 9.4258C79.822 9.4258 80.6253 10.2689 80.6253 11.4948C80.6253 12.9757 79.5813 13.6385 78.5643 13.6385" fill="white"/>
<path d="M81.8226 10.7159C81.8226 10.2519 81.8083 9.86273 81.7913 9.51436H82.6758L82.7256 10.1194H82.7505C82.9329 9.8044 83.372 9.42528 84.0433 9.42528C84.7453 9.42528 85.4744 9.87863 85.4744 11.1549V13.5452H84.4553V11.271C84.4553 10.691 84.24 10.2519 83.6869 10.2519C83.2808 10.2519 82.9992 10.542 82.8916 10.8484C82.8587 10.9312 82.8417 11.0558 82.8417 11.1713V13.5452H81.8226" fill="white"/>
<path d="M90.1654 8.48093V9.51436H91.1326V10.2768H90.1654V12.0478C90.1654 12.5452 90.298 12.7933 90.685 12.7933C90.8674 12.7933 90.9666 12.7849 91.0827 12.752L91.0992 13.5203C90.9502 13.5802 90.6766 13.6279 90.3616 13.6279C89.9825 13.6279 89.676 13.5039 89.4856 13.2987C89.2619 13.0664 89.1627 12.6937 89.1627 12.1634V10.2763H88.5911V9.51383H89.1627V8.76195" fill="white"/>
<path d="M92.2657 7.66065H93.2848V10.061H93.3012C93.4253 9.87068 93.5992 9.7132 93.8065 9.60556C94.0138 9.49156 94.2519 9.42528 94.5086 9.42528C95.1963 9.42528 95.9147 9.87863 95.9147 11.1713V13.5468H94.8978V11.279C94.8978 10.6989 94.6825 10.2514 94.1188 10.2514C93.7233 10.2514 93.4417 10.5165 93.3256 10.823C93.2927 10.9142 93.2842 11.0218 93.2842 11.1295V13.5468H92.2651" fill="white"/>
<path d="M99.8549 11.1051C99.8634 10.7323 99.6974 10.1194 99.0182 10.1194C98.3883 10.1194 98.1253 10.691 98.0839 11.1051H99.8549ZM98.0839 11.8156C98.1089 12.5447 98.6783 12.8596 99.3247 12.8596C99.7971 12.8596 100.129 12.7849 100.441 12.6772L100.592 13.3713C100.244 13.5224 99.7637 13.6279 99.1836 13.6279C97.8766 13.6279 97.1062 12.8262 97.1062 11.5939C97.1062 10.4757 97.7854 9.42528 99.076 9.42528C100.383 9.42528 100.814 10.5001 100.814 11.3866C100.814 11.577 100.797 11.7265 100.781 11.8156" fill="white"/>
<path d="M26.852 18.9573C26.825 16.1964 29.1119 14.8523 29.2174 14.7902C27.9231 12.9015 25.9156 12.6443 25.2093 12.6237C23.5253 12.4476 21.8911 13.6343 21.0337 13.6343C20.1578 13.6343 18.8343 12.6422 17.4111 12.6714C15.576 12.7006 13.8612 13.7631 12.9206 15.4095C10.982 18.7712 12.4275 23.7088 14.2875 26.4262C15.2197 27.7561 16.3051 29.2429 17.7277 29.1893C19.1196 29.1315 19.6392 28.3027 21.319 28.3027C22.9845 28.3027 23.4728 29.1893 24.9251 29.1559C26.4183 29.131 27.3589 27.8197 28.2555 26.4756C29.3324 24.9511 29.7635 23.4495 29.78 23.3726C29.7455 23.361 26.8806 22.2671 26.852 18.9573Z" fill="white"/>
<path d="M24.1096 10.8378C24.8572 9.90143 25.3732 8.62568 25.2279 7.3335C24.1446 7.38334 22.7899 8.08325 22.0093 8.99897C21.3195 9.80652 20.7002 11.1305 20.8619 12.3729C22.0799 12.4641 23.3286 11.7599 24.1096 10.8378Z" fill="white"/>
<path d="M43.6499 24.2284L42.6891 21.2601C42.5878 20.9579 42.3969 20.2431 42.1154 19.1206H42.0814C41.9696 19.6031 41.7871 20.3179 41.5406 21.2601L40.5962 24.2284H43.6499ZM46.9718 28.9698H45.0311L43.9685 25.6309H40.2776L39.2648 28.9698H37.3761L41.0379 17.6031H43.2957" fill="white"/>
<path d="M54.5277 24.8376C54.5277 24.038 54.3474 23.3816 53.9869 22.8636C53.5934 22.3248 53.0653 22.0539 52.4025 22.0539C51.9529 22.0539 51.543 22.205 51.1803 22.5014C50.8155 22.8015 50.5753 23.1912 50.4619 23.6759C50.4062 23.8996 50.3791 24.0842 50.3791 24.2289V25.5959C50.3791 26.1924 50.5615 26.6956 50.9258 27.106C51.2922 27.518 51.7668 27.7211 52.3511 27.7211C53.0388 27.7211 53.5733 27.4581 53.9524 26.9278C54.3373 26.3992 54.5277 25.7035 54.5277 24.8376ZM56.3835 24.7692C56.3835 26.1632 56.0065 27.2672 55.2525 28.0747C54.5775 28.7953 53.7387 29.1538 52.7403 29.1538C51.6591 29.1538 50.8845 28.7646 50.412 27.9899H50.3791V32.3087H48.5562V23.4707C48.5562 22.5947 48.5355 21.6955 48.4899 20.7718H50.0912L50.1925 22.0725H50.2275C50.8346 21.0926 51.7562 20.6037 52.9927 20.6037C53.9577 20.6037 54.7679 20.9871 55.4116 21.7511C56.0585 22.5179 56.3835 23.5221 56.3835 24.7692Z" fill="white"/>
<path d="M63.9537 24.8376C63.9537 24.038 63.7734 23.3816 63.4129 22.8636C63.0194 22.3248 62.4913 22.0539 61.8285 22.0539C61.3789 22.0539 60.9711 22.205 60.6063 22.5014C60.2399 22.8015 60.0035 23.1912 59.8916 23.6759C59.8338 23.8996 59.8067 24.0842 59.8067 24.2289V25.5959C59.8067 26.1924 59.987 26.6956 60.3513 27.106C60.7177 27.518 61.1922 27.7211 61.7782 27.7211C62.4637 27.7211 62.9982 27.4581 63.3795 26.9278C63.7612 26.3992 63.9537 25.7035 63.9537 24.8376ZM65.8079 24.7692C65.8079 26.1632 65.4331 27.2672 64.6791 28.0747C64.0041 28.7953 63.1668 29.1538 62.1668 29.1538C61.0878 29.1538 60.3131 28.7646 59.8386 27.9899H59.8073V32.3087H57.9843V23.4707C57.9843 22.5947 57.9615 21.6955 57.918 20.7718H59.5193L59.6206 22.0725H59.6556C60.2606 21.0926 61.1822 20.6037 62.4187 20.6037C63.3858 20.6037 64.1918 20.9871 64.8397 21.7511C65.4866 22.5179 65.8079 23.5221 65.8079 24.7692Z" fill="white"/>
<path d="M76.35 25.782C76.35 26.747 76.0144 27.5344 75.3394 28.1431C74.5981 28.8059 73.5684 29.1373 72.245 29.1373C71.0206 29.1373 70.0392 28.9014 69.2958 28.4289L69.7184 26.913C70.5201 27.3955 71.396 27.6357 72.3531 27.6357C73.0387 27.6357 73.5732 27.4825 73.956 27.1739C74.3373 26.8631 74.5276 26.449 74.5276 25.931C74.5276 25.4713 74.3723 25.08 74.0573 24.765C73.7423 24.45 73.2185 24.1579 72.4873 23.8869C70.4968 23.1435 69.5026 22.056 69.5026 20.627C69.5026 19.6928 69.8504 18.9266 70.5487 18.33C71.2444 17.7335 72.1723 17.4334 73.3303 17.4334C74.3659 17.4334 75.2254 17.6158 75.911 17.9743L75.4555 19.4594C74.8155 19.1116 74.0907 18.9356 73.2805 18.9356C72.6384 18.9356 72.1394 19.0931 71.781 19.408C71.4788 19.6896 71.3255 20.0337 71.3255 20.4372C71.3255 20.8868 71.4973 21.2575 71.8473 21.5496C72.1495 21.819 72.7004 22.1112 73.5 22.4277C74.4778 22.8211 75.1963 23.2809 75.6581 23.809C76.1183 24.336 76.35 24.9951 76.35 25.782Z" fill="white"/>
<path d="M82.3693 22.1387H80.3624V26.1176C80.3624 27.1304 80.7166 27.6357 81.4271 27.6357C81.75 27.6357 82.0215 27.6086 82.2346 27.553L82.2845 28.9342C81.9282 29.071 81.4541 29.1373 80.8698 29.1373C80.1513 29.1373 79.5877 28.9178 79.1815 28.4809C78.7775 28.0418 78.5744 27.3043 78.5744 26.2709V22.1387H77.3772V20.7718H78.5744V19.2723L80.3619 18.7314V20.7718H82.3688" fill="white"/>
<path d="M89.5376 24.8626C89.5376 24.1065 89.3737 23.4601 89.0466 22.9177C88.6675 22.2634 88.1208 21.9357 87.4124 21.9357C86.6812 21.9357 86.1239 22.2628 85.7432 22.9177C85.4161 23.4601 85.2565 24.1192 85.2565 24.8976C85.2565 25.6537 85.4161 26.3 85.7432 26.8404C86.1367 27.4947 86.6876 27.8224 87.3981 27.8224C88.0922 27.8224 88.6388 27.491 89.0323 26.8239C89.37 26.273 89.5376 25.6182 89.5376 24.8626ZM91.4268 24.8042C91.4268 26.0636 91.0684 27.097 90.3478 27.9072C89.5938 28.7397 88.5932 29.1543 87.3466 29.1543C86.1414 29.1543 85.1843 28.7545 84.4696 27.957C83.7569 27.1596 83.4006 26.1532 83.4006 24.9395C83.4006 23.668 83.767 22.6282 84.5046 21.8201C85.24 21.0083 86.2321 20.6043 87.4787 20.6043C88.6823 20.6043 89.6516 21.004 90.3807 21.8015C91.079 22.5799 91.4268 23.5783 91.4268 24.8042Z" fill="white"/>
<path d="M97.3464 22.3747C97.1661 22.3418 96.9757 22.3248 96.7727 22.3248C96.1327 22.3248 95.6353 22.5672 95.2875 23.0497C94.9852 23.4786 94.8341 24.0168 94.8341 24.6674V28.9692H93.0133L93.0276 23.354C93.0276 22.4076 93.0048 21.548 92.9613 20.7713H94.5478L94.6141 22.3413H94.6618C94.8543 21.8026 95.1591 21.3678 95.5733 21.0427C95.9794 20.7506 96.4185 20.6037 96.8904 20.6037C97.0579 20.6037 97.2112 20.6159 97.3458 20.6366" fill="white"/>
<path d="M103.753 24.011C103.765 23.4723 103.647 23.0046 103.401 22.6106C103.086 22.1053 102.599 21.8503 101.949 21.8503C101.354 21.8503 100.87 22.099 100.499 22.5937C100.197 22.9871 100.015 23.4596 99.9626 24.0105L103.753 24.011ZM105.488 24.4834C105.488 24.8106 105.467 25.0842 105.424 25.3101H99.962C99.9806 26.1198 100.246 26.7391 100.753 27.1659C101.213 27.5493 101.809 27.7375 102.541 27.7375C103.348 27.7375 104.086 27.6092 104.751 27.3504L105.036 28.6161C104.26 28.9517 103.344 29.1235 102.286 29.1235C101.016 29.1235 100.018 28.7487 99.2924 27.9989C98.5696 27.2534 98.2048 26.2486 98.2048 24.9893C98.2048 23.7528 98.5405 22.7236 99.2176 21.9033C99.9239 21.0252 100.881 20.5883 102.082 20.5883C103.263 20.5883 104.159 21.0252 104.766 21.9033C105.25 22.5985 105.488 23.4601 105.488 24.4834Z" fill="white"/>
</svg>
