<svg width="117" height="40" viewBox="0 0 117 40" fill="none" xmlns="http://www.w3.org/2000/svg">
<rect width="117" height="40" fill="black"/>
<path d="M92.0456 28.3271H93.6363V17.6667H92.0456V28.3271ZM106.378 21.5067L104.554 26.1298H104.5L102.607 21.5067H100.892L103.731 27.9671L102.112 31.5605H103.773L108.147 21.5067H106.378ZM97.3516 27.1155C96.832 27.1155 96.1045 26.8567 96.1045 26.2104C96.1045 25.388 97.0096 25.073 97.7907 25.073C98.4906 25.073 98.8199 25.2241 99.2446 25.4294C99.1205 26.4172 98.2716 27.1155 97.3516 27.1155ZM97.5446 21.2744C96.393 21.2744 95.1999 21.7819 94.7052 22.9065L96.1178 23.4945C96.42 22.9065 96.9815 22.7135 97.5717 22.7135C98.3962 22.7135 99.2308 23.2066 99.2451 24.0847V24.1944C98.9572 24.0306 98.34 23.7824 97.586 23.7824C96.0637 23.7824 94.5143 24.6192 94.5143 26.1828C94.5143 27.6097 95.7614 28.5296 97.1613 28.5296C98.2302 28.5296 98.8204 28.0492 99.191 27.4856H99.2451V28.3101H100.782V24.2215C100.782 22.3307 99.3692 21.2744 97.5446 21.2744ZM87.7103 22.8052H85.4462V19.1492H87.7103C88.9013 19.1492 89.5747 20.1349 89.5747 20.9759C89.5741 21.8047 88.9013 22.8052 87.7103 22.8052ZM87.669 17.6667H83.8561V28.3271H85.4468V24.2883H87.669C89.4336 24.2883 91.1675 23.0104 91.1675 20.9764C91.1675 18.9424 89.4336 17.6667 87.669 17.6667ZM66.8779 27.1176C65.7782 27.1176 64.8566 26.1982 64.8566 24.9346C64.8566 23.6568 65.7782 22.7225 66.8779 22.7225C67.9633 22.7225 68.8143 23.6568 68.8143 24.9346C68.8143 26.1977 67.9633 27.1176 66.8779 27.1176ZM68.7024 22.1032H68.6484C68.292 21.6785 67.6043 21.2935 66.7384 21.2935C64.924 21.2935 63.2628 22.8885 63.2628 24.9346C63.2628 26.9686 64.924 28.5487 66.7384 28.5487C67.6043 28.5487 68.292 28.1632 68.6484 27.7242H68.7024V28.2438C68.7024 29.6315 67.9628 30.3754 66.766 30.3754C65.7904 30.3754 65.1859 29.6734 64.9394 29.0827L63.5517 29.6606C63.9494 30.6214 65.0078 31.8023 66.766 31.8023C68.634 31.8023 70.2147 30.7047 70.2147 28.0243V21.5125H68.7024V22.1032ZM71.3144 28.3271H72.9093V17.6667H71.3144V28.3271ZM75.2578 24.81C75.2164 23.4076 76.3431 22.6955 77.1528 22.6955C77.7843 22.6955 78.3209 23.0104 78.4991 23.4638L75.2578 24.81ZM80.2043 23.6006C79.9021 22.7909 78.9821 21.293 77.0977 21.293C75.2312 21.293 73.6782 22.7633 73.6782 24.9198C73.6782 26.9538 75.2169 28.5487 77.2779 28.5487C78.9413 28.5487 79.9021 27.5317 80.2998 26.9395L79.0633 26.1149C78.6513 26.7199 78.0876 27.1176 77.2779 27.1176C76.4683 27.1176 75.8903 26.7491 75.5197 26.02L80.3687 24.0152L80.2043 23.6006ZM41.5634 22.4054V23.9442H45.2459C45.1361 24.81 44.8482 25.4415 44.407 25.8806C43.8726 26.4172 43.0337 27.0073 41.5634 27.0073C39.2977 27.0073 37.5246 25.1807 37.5246 22.9144C37.5246 20.6466 39.2977 18.8194 41.5634 18.8194C42.7877 18.8194 43.6801 19.2998 44.3386 19.9191L45.424 18.8316C44.5046 17.9536 43.2824 17.2802 41.5634 17.2802C38.4588 17.2802 35.849 19.8094 35.849 22.9139C35.849 26.0184 38.4583 28.5487 41.5634 28.5487C43.241 28.5487 44.5046 27.9978 45.4945 26.9686C46.5094 25.9516 46.8265 24.5226 46.8265 23.3689C46.8265 23.0104 46.7995 22.6811 46.7438 22.4059L41.5634 22.4054ZM51.0122 27.1176C49.9125 27.1176 48.966 26.2125 48.966 24.9198C48.966 23.6149 49.9125 22.722 51.0122 22.722C52.1119 22.722 53.0584 23.6149 53.0584 24.9198C53.0584 26.2125 52.1119 27.1176 51.0122 27.1176ZM51.0122 21.293C49.0052 21.293 47.3711 22.8174 47.3711 24.9198C47.3711 27.0079 49.0052 28.5487 51.0122 28.5487C53.0191 28.5487 54.6533 27.0079 54.6533 24.9198C54.6533 22.8174 53.0191 21.293 51.0122 21.293ZM58.9551 27.1176C57.8554 27.1176 56.9068 26.2125 56.9068 24.9198C56.9068 23.6149 57.8554 22.722 58.9551 22.722C60.0527 22.722 61.0013 23.6149 61.0013 24.9198C61.0018 26.2125 60.0532 27.1176 58.9551 27.1176ZM58.9551 21.293C56.9482 21.293 55.314 22.8174 55.314 24.9198C55.314 27.0079 56.9482 28.5487 58.9551 28.5487C60.9599 28.5487 62.5962 27.0079 62.5962 24.9198C62.5968 22.8174 60.9605 21.293 58.9551 21.293Z" fill="white"/>
<path d="M39.9457 9.78314C39.6249 9.49946 39.2044 9.31706 38.7362 9.31706C37.6879 9.31706 36.8804 10.1829 36.8804 11.2455C36.8804 12.3102 37.6879 13.1676 38.7362 13.1676C39.6392 13.1676 40.2956 12.6438 40.3391 11.8129H38.9122V11.2249H41.1101C41.1101 12.9874 40.1716 13.8161 38.7362 13.8161C37.3093 13.8161 36.2033 12.6666 36.2033 11.2455C36.2033 9.81866 37.3093 8.66699 38.7362 8.66699C39.399 8.66699 39.9955 8.92363 40.4324 9.32979" fill="white"/>
<path d="M45.0078 8.72692V9.35843H42.713V10.9613H44.7157V11.595H42.713V13.1088H45.0805V13.7424H42.0359V8.72586" fill="white"/>
<path d="M49.3987 8.72693V9.36692H47.8764V13.7435H47.1929V9.36692H45.6706V8.72693" fill="white"/>
<path d="M51.9692 13.7435H52.6464V8.72693H51.9692V13.7435Z" fill="white"/>
<path d="M57.2652 8.72693V9.36692H55.7429V13.7435H55.0573V9.36692H53.535V8.72693" fill="white"/>
<path d="M62.0416 13.1613C63.0978 13.1613 63.9059 12.3102 63.9059 11.2455C63.9059 10.1829 63.0984 9.32342 62.0416 9.32342C60.9933 9.32342 60.1858 10.1829 60.1858 11.2455C60.1858 12.3102 60.9933 13.1613 62.0416 13.1613ZM62.0416 8.66699C63.477 8.66699 64.5915 9.81866 64.5915 11.2455C64.5915 12.6666 63.477 13.8161 62.0416 13.8161C60.6147 13.8161 59.5087 12.6666 59.5087 11.2455C59.5081 9.81866 60.6142 8.66699 62.0416 8.66699Z" fill="white"/>
<path d="M68.5969 13.7435L66.3105 9.96556V13.7435H65.6334V8.72693H66.3047L68.5688 12.4757V8.72693H69.2459V13.7435" fill="white"/>
<path d="M20.4017 18.3247C21.4993 17.2117 22.5767 16.1184 23.6573 15.0229C23.6186 15.0001 23.5603 14.9635 23.5004 14.9296C20.4653 13.2329 17.4308 11.535 14.3941 9.84146C14.0473 9.64845 13.7085 9.43689 13.3538 9.25979C12.7498 8.89711 12.174 8.85522 11.7366 8.9093C11.7344 8.9093 11.7328 8.9093 11.7307 8.9093C11.7291 8.90983 11.727 8.91036 11.7254 8.91089C11.2556 8.97134 10.9491 9.14261 10.9491 9.14261C10.8696 9.1792 10.7917 9.22267 10.7164 9.27729C13.9625 12.3092 17.1959 15.3299 20.4017 18.3247Z" fill="white"/>
<path d="M9.73121 10.1983C9.45549 10.6559 9.35103 11.1214 9.35156 11.6167C9.35262 13.2016 9.3521 14.7864 9.3521 16.3713C9.3521 20.189 9.35262 24.0067 9.35156 27.8244C9.35156 28.3122 9.4433 28.7735 9.69304 29.1993C12.9577 25.8944 16.2086 22.6042 19.4748 19.2982C16.2356 16.2732 12.9885 13.2408 9.73121 10.1983Z" fill="white"/>
<path d="M10.7201 30.1993C10.7169 30.1972 10.7392 30.2126 10.7631 30.2253C11.674 30.6951 12.5675 30.6373 13.4519 30.1426C16.1025 28.659 18.7548 27.178 21.407 25.696C22.4224 25.1287 23.4383 24.5619 24.4834 23.9781C23.1345 22.7177 21.8079 21.4785 20.5205 20.276C17.2436 23.5931 13.9816 26.8965 10.7201 30.1993Z" fill="white"/>
<path d="M27.9788 17.4345C27.0212 16.8915 26.0556 16.3623 25.098 15.8183C24.9623 15.7414 24.8875 15.7584 24.7815 15.866C23.713 16.9556 22.6388 18.0394 21.5666 19.1248C21.5232 19.1689 21.4823 19.216 21.4245 19.2786C22.836 20.5973 24.2305 21.9017 25.6309 23.2002C25.6717 23.2379 25.7852 23.2405 25.8393 23.2108C26.5668 22.8132 27.2921 22.4118 28.0127 22.0014C28.6654 21.6297 29.1299 21.0952 29.3033 20.3444C29.5822 19.1376 29.0923 18.066 27.9788 17.4345Z" fill="white"/>
</svg>
