<svg width="17" height="17" viewBox="0 0 17 17" fill="none" xmlns="http://www.w3.org/2000/svg">
<path d="M16.5201 0.494685C16.0949 0.0583084 15.4656 -0.104263 14.8789 0.0668648L1.1968 4.0456C0.577744 4.21758 0.138964 4.71128 0.0207656 5.33847C-0.0999838 5.97678 0.321789 6.78707 0.872815 7.1259L5.15092 9.75529C5.5897 10.0248 6.15603 9.95722 6.51913 9.59101L11.418 4.66166C11.6646 4.40496 12.0728 4.40496 12.3194 4.66166C12.566 4.90979 12.566 5.31194 12.3194 5.56864L7.41199 10.4988C7.04804 10.8642 6.98001 11.4332 7.24787 11.8747L9.86184 16.1957C10.168 16.7091 10.6952 17 11.2734 17C11.3415 17 11.418 17 11.486 16.9914C12.1493 16.9059 12.6765 16.4524 12.8721 15.8107L16.9282 2.14607C17.1068 1.56424 16.9452 0.931062 16.5201 0.494685Z" fill="white"/>
</svg>
