<svg width="16" height="20" viewBox="0 0 16 20" fill="none" xmlns="http://www.w3.org/2000/svg">
<path fill-rule="evenodd" clip-rule="evenodd" d="M16 16.299C16 19.6165 11.4343 20 8.00101 20L7.75532 19.9998C5.56788 19.9945 0 19.8569 0 16.2789C0 13.0291 4.38217 12.5948 7.78938 12.5784L8.24669 12.5781C10.434 12.5834 16 12.721 16 16.299ZM8.00101 14.0877C3.69697 14.0877 1.51515 14.8245 1.51515 16.2789C1.51515 17.7464 3.69697 18.4902 8.00101 18.4902C12.304 18.4902 14.4848 17.7534 14.4848 16.299C14.4848 14.8315 12.304 14.0877 8.00101 14.0877ZM8.00101 0C10.9586 0 13.3636 2.39754 13.3636 5.34463C13.3636 8.29173 10.9586 10.6883 8.00101 10.6883H7.96869C5.01717 10.6792 2.62626 8.28066 2.63633 5.34161C2.63633 2.39754 5.04242 0 8.00101 0ZM8.00101 1.43731C5.83838 1.43731 4.07877 3.18967 4.07877 5.34463C4.07172 7.49255 5.81818 9.2439 7.97172 9.25195L8.00101 9.97061V9.25195C10.1626 9.25195 11.9212 7.49859 11.9212 5.34463C11.9212 3.18967 10.1626 1.43731 8.00101 1.43731Z" fill="black"/>
</svg>
